<?xml version="1.0" encoding="UTF-8"?>
<svg version="1.1" xmlns="http://www.w3.org/2000/svg" width="429" height="96">
<path d="M0 0 C4.62276074 3.81141906 6.96458427 8.45914608 9 14 C9.639375 13.525625 10.27875 13.05125 10.9375 12.5625 C15.3929293 10.28932179 20.1069829 9.17660282 25.03125 10.578125 C26.72256202 11.30911579 28.36528435 12.14994786 30 13 C31.485 13.495 31.485 13.495 33 14 C34.051875 13.319375 34.051875 13.319375 35.125 12.625 C39.48508474 10.16060427 44.09332632 9.32363939 49.03125 10.47265625 C52.72828926 11.90604224 55.29811142 13.40712411 57 17 C57.52286745 19.99225136 57.8122155 22.96954666 58 26 C58.21914063 25.48050781 58.43828125 24.96101563 58.6640625 24.42578125 C61.28771616 18.65587626 64.15462306 14.74024358 70.140625 12.03125 C78.45195088 8.97810988 85.88822899 9.49406507 94 13 C97 15.625 97 15.625 99 18 C99.66 18.33 100.32 18.66 101 19 C101.9590625 17.6078125 101.9590625 17.6078125 102.9375 16.1875 C106.37183388 12.18393951 109.80870247 10.73146874 115 10 C123.74265544 9.86604716 131.84025715 10.64867704 140 14 C140.10957031 13.38511719 140.21914063 12.77023438 140.33203125 12.13671875 C140.49058594 11.32847656 140.64914062 10.52023438 140.8125 9.6875 C141.03873047 8.48673828 141.03873047 8.48673828 141.26953125 7.26171875 C142.10398558 4.67803394 142.82745836 3.61188573 145 2 C150.29644415 0.49681871 154.93916313 0.79399419 160 3 C160 5.64 160 8.28 160 11 C160.94875 10.938125 161.8975 10.87625 162.875 10.8125 C163.90625 10.874375 164.9375 10.93625 166 11 C168.15164703 14.22747055 168.27245079 15.20505639 168.25 18.9375 C168.25773437 20.21947266 168.25773437 20.21947266 168.265625 21.52734375 C167.97921763 24.19345942 167.53751811 25.80283703 166 28 C162.375 28.75 162.375 28.75 159 29 C158.67 33.29 158.34 37.58 158 42 C161.465 41.505 161.465 41.505 165 41 C167.23258941 43.9302736 168.83388043 46.34936504 169.75 49.9375 C168.56395548 54.78051513 165.03167295 57.27000157 161 60 C155.78394058 62.52823492 150.70154116 62.84752639 145 62 C141.33426273 59.36066917 139.77497091 57.37252891 139 53 C138.91940003 51.0482673 138.89237757 49.09399582 138.90234375 47.140625 C138.90556641 46.02558594 138.90878906 44.91054688 138.91210938 43.76171875 C138.92048828 42.60285156 138.92886719 41.44398437 138.9375 40.25 C138.94201172 39.07566406 138.94652344 37.90132812 138.95117188 36.69140625 C138.96294906 33.79421928 138.97939674 30.89713546 139 28 C137.68 28 136.36 28 135 28 C134.731875 28.639375 134.46375 29.27875 134.1875 29.9375 C133 32 133 32 130 33 C130.94875 33.7425 131.8975 34.485 132.875 35.25 C136.05873353 37.74161755 137.70350901 40.10383671 138.3359375 44.1484375 C138.43206812 49.62788267 137.70194013 52.69774526 134 57 C128.87749468 61.6227487 124.90157988 62.20130314 118.1875 62.25 C117.48818359 62.270625 116.78886719 62.29125 116.06835938 62.3125 C110.01622713 62.35779192 106.05807855 60.89559867 101.625 56.8125 C101.08875 56.214375 100.5525 55.61625 100 55 C97.89879955 56.01963015 95.8759175 57.07540925 93.87890625 58.2890625 C86.97192748 62.272514 80.89041198 63.08833269 73 62 C67.5537199 60.37733651 64.18039199 57.77058799 61 53 C59.948125 54.3921875 59.948125 54.3921875 58.875 55.8125 C55.73838023 59.51861778 52.71882837 61.61022107 47.79296875 62.31640625 C43.57986 62.53300056 41.55055728 62.35954761 37.9375 60 C37.298125 59.34 36.65875 58.68 36 58 C35.21625 58.66 34.4325 59.32 33.625 60 C29.34964054 62.82660021 24.95092642 62.93231731 20 62 C16.63688139 60.31844069 14.53605332 58.08571961 12.85595703 54.68286133 C11.91055546 51.71965031 11.77147713 49.36688818 11.8046875 46.26171875 C11.81113281 45.19501953 11.81757813 44.12832031 11.82421875 43.02929688 C11.84097656 41.92650391 11.85773438 40.82371094 11.875 39.6875 C11.88402344 38.56537109 11.89304687 37.44324219 11.90234375 36.28710938 C11.92585514 33.52452091 11.95871845 30.76237068 12 28 C11.34 28 10.68 28 10 28 C10.04640625 28.57105469 10.0928125 29.14210937 10.140625 29.73046875 C10.57917732 39.58223341 8.26261557 48.35439016 2 56 C1.66407492 58.7104607 1.66407492 58.7104607 2 61 C4.31 60.34 6.62 59.68 9 59 C11.94455068 61.27965214 13.38911854 63.28228342 14.1875 66.875 C14.41254575 69.55554487 14.29389086 70.60699639 12.66796875 72.78125 C8.32669604 76.64015907 4.39125462 78.78261322 -1.4375 79.3125 C-6.17328036 78.89708067 -9.42185383 77.63450853 -12.75 74.1875 C-15.08695615 70.09782675 -16 66.71059148 -16 62 C-17.299375 62.0825 -18.59875 62.165 -19.9375 62.25 C-26.75281861 62.22853443 -31.85223682 60.00457897 -36.8125 55.375 C-44.39217369 45.04146562 -45.17918528 31.83389651 -43.5390625 19.546875 C-41.95328745 11.52471886 -39.56283321 5.50784287 -32.97265625 0.44140625 C-22.93971718 -6.15380323 -10.47129876 -5.7609087 0 0 Z M-21 15 C-22.25933818 19.45384889 -22.18397568 23.71325899 -22.1875 28.3125 C-22.19974609 29.14201172 -22.21199219 29.97152344 -22.22460938 30.82617188 C-22.23673399 35.94679921 -21.6559124 40.15007474 -20 45 C-17.69 45 -15.38 45 -13 45 C-12.01672685 42.05018055 -11.87112662 40.11020492 -11.8671875 37.03515625 C-11.86589844 36.07029297 -11.86460937 35.10542969 -11.86328125 34.11132812 C-11.86714844 33.10521484 -11.87101562 32.09910156 -11.875 31.0625 C-11.87113281 30.06025391 -11.86726563 29.05800781 -11.86328125 28.02539062 C-11.86457031 27.05923828 -11.86585938 26.09308594 -11.8671875 25.09765625 C-11.86831543 24.21601807 -11.86944336 23.33437988 -11.87060547 22.42602539 C-11.99224204 20.1454544 -12.36076187 18.1859151 -13 16 C-15.64 15.67 -18.28 15.34 -21 15 Z M33 27 C32.66048381 28.56116819 32.32867456 30.12401338 32 31.6875 C31.814375 32.55761719 31.62875 33.42773438 31.4375 34.32421875 C31.01027953 36.93712964 30.92383799 39.35813038 31 42 C34.74619706 38.65566235 34.74619706 38.65566235 36.09765625 34.0546875 C36.08605469 33.33539063 36.07445312 32.61609375 36.0625 31.875 C36.041875 30.59625 36.02125 29.3175 36 28 C35.01 27.67 34.02 27.34 33 27 Z M78 29 C82 30 82 30 82 30 Z M56 31 C55.34 34.96 54.68 38.92 54 43 C54.99 43 55.98 43 57 43 C57 39.04 57 35.08 57 31 C56.67 31 56.34 31 56 31 Z M100 35 C98.2856382 36.95927063 96.61594832 38.95880212 95 41 C95.61875 41.763125 96.2375 42.52625 96.875 43.3125 C99 46 99 46 101 49 C101.598125 48.030625 102.19625 47.06125 102.8125 46.0625 C105 43 105 43 108 42 C107.04882866 40.8274869 106.08882991 39.66212985 105.125 38.5 C104.59132813 37.8503125 104.05765625 37.200625 103.5078125 36.53125 C103.01023437 36.0259375 102.51265625 35.520625 102 35 C101.34 35 100.68 35 100 35 Z M78 42 C78.33 42.99 78.66 43.98 79 45 C84.32170494 45.29562367 84.32170494 45.29562367 89 43 C85.37 42.67 81.74 42.34 78 42 Z M57 43 C58 45 58 45 58 45 Z " fill="#7E7A72" transform="translate(255,13)"/>
<path d="M0 0 C2.63161191 4.3158591 3.370276 7.52082272 3.328125 12.54296875 C3.32296875 13.78240234 3.3178125 15.02183594 3.3125 16.29882812 C3.291875 17.58208984 3.27125 18.86535156 3.25 20.1875 C3.24484375 21.45142578 3.2396875 22.71535156 3.234375 24.01757812 C3.17332934 31.39265748 2.81628167 38.66960076 2 46 C2.99 46.33 3.98 46.66 5 47 C7.08413626 49.70165812 7.94367823 51.6137936 8.4375 55 C7.87873996 58.83149741 6.76300265 60.30970795 4 63 C-0.75155289 66.20453567 -5.40258272 66.97749015 -11 66 C-14.0625 64 -14.0625 64 -16 62 C-17.175625 62.99 -17.175625 62.99 -18.375 64 C-22.64023723 66.84686855 -27.04858546 66.69551642 -32 66 C-35.36931237 64.49456256 -37.44828838 62.59533062 -40 60 C-40.46148437 60.433125 -40.92296875 60.86625 -41.3984375 61.3125 C-46.15682855 65.37499987 -49.45381026 66.65317332 -55.703125 66.50390625 C-58.4174535 65.90841581 -59.91160311 64.79621292 -62 63 C-62.78375 63.495 -63.5675 63.99 -64.375 64.5 C-69.05977171 66.43852622 -73.00063227 67.0030327 -78 66 C-80.75445769 64.34732538 -82.8440989 62.36414155 -85 60 C-85.66 59.34 -86.32 58.68 -87 58 C-87.50789063 58.40992188 -88.01578125 58.81984375 -88.5390625 59.2421875 C-89.22742188 59.78101563 -89.91578125 60.31984375 -90.625 60.875 C-91.63433594 61.67550781 -91.63433594 61.67550781 -92.6640625 62.4921875 C-99.18292647 66.70001608 -106.47781103 66.92764479 -114 66 C-117.04035312 64.71203939 -119.39543777 62.99421238 -122 61 C-123.31956184 60.30647367 -124.64997327 59.63217882 -126 59 C-126.7425 59.78375 -127.485 60.5675 -128.25 61.375 C-133.06672504 65.97278299 -136.75956545 66.51944985 -143.3046875 66.37109375 C-147.73762684 65.76076152 -149.12538393 64.44953928 -152 61 C-154.13851491 56.87805333 -155 53.67006214 -155 49 C-156.32 49 -157.64 49 -159 49 C-158.855625 49.59167969 -158.71125 50.18335938 -158.5625 50.79296875 C-156.39044302 60.03929466 -156.39044302 60.03929466 -157 63 C-160.86640657 65.94447229 -163.82456234 66.40810647 -168.625 66.375 C-169.75164062 66.38273437 -170.87828125 66.39046875 -172.0390625 66.3984375 C-175.3643039 65.95097758 -175.99192985 65.56476019 -178 63 C-178.50828552 61.04603577 -178.50828552 61.04603577 -178.68139648 58.85961914 C-178.74567841 58.06161896 -178.80996033 57.26361877 -178.87619019 56.44143677 C-179.06564201 52.70558868 -179.12370765 48.9862864 -179.09765625 45.24609375 C-179.0962413 44.45977066 -179.09482635 43.67344757 -179.09336853 42.86329651 C-179.08783672 40.38798985 -179.07529775 37.91277863 -179.0625 35.4375 C-179.05747616 33.74414194 -179.05291481 32.05078245 -179.04882812 30.35742188 C-179.03788978 26.2382453 -179.02067362 22.11913875 -179 18 C-180.65 17.67 -182.3 17.34 -184 17 C-185.00496852 13.98509443 -185.10335303 11.95818308 -185.0625 8.8125 C-185.05347656 7.91144531 -185.04445312 7.01039062 -185.03515625 6.08203125 C-185.02355469 5.39496094 -185.01195312 4.70789063 -185 4 C-175.628098 -0.24051839 -164.22095136 -0.18986681 -154.0625 -0.3125 C-152.91080322 -0.33884521 -152.91080322 -0.33884521 -151.73583984 -0.36572266 C-144.73451681 -0.35816999 -138.45164605 0.95696162 -133 5.5 C-128.71995889 10.85005139 -129.34912037 17.46259357 -130 24 C-131.52392159 29.09542893 -133.4113817 33.94695965 -136.68359375 38.17578125 C-138.29271894 39.9831332 -138.29271894 39.9831332 -137.75 42.625 C-137.07341388 44.98410145 -137.07341388 44.98410145 -136 47 C-133.69 47 -131.38 47 -129 47 C-129.20625 45.72125 -129.4125 44.4425 -129.625 43.125 C-130.50680582 34.72810275 -128.76687535 27.75102758 -123.75390625 20.9140625 C-118.83951336 15.55091659 -112.80189906 14.35368128 -105.73828125 13.97265625 C-98.73904065 14.04254881 -93.52714748 15.38325287 -88.375 20.296875 C-84.71096295 24.83528452 -84.58577569 30.40797176 -85 36 C-86.07440353 39.5537963 -87.66202007 42.130661 -90 45 C-89.34 45.66 -88.68 46.32 -88 47 C-87.49339844 46.06027344 -87.49339844 46.06027344 -86.9765625 45.1015625 C-86.53054687 44.28429688 -86.08453125 43.46703125 -85.625 42.625 C-84.96371094 41.40683594 -84.96371094 41.40683594 -84.2890625 40.1640625 C-83 38 -83 38 -81 36 C-81.28875 35.5153125 -81.5775 35.030625 -81.875 34.53125 C-84.69758889 29.43490894 -85.97117224 25.82703345 -85 20 C-79.99139135 15.11981721 -73.58565846 14.0395477 -66.8125 13.96484375 C-60.27264728 14.27518398 -54.2908351 14.8689785 -49 19 C-44.08263998 25.0521354 -43.48472134 30.45056848 -44 38 C-44.52814864 41.04029911 -45.21033197 44.01759306 -46 47 C-45.01 47 -44.02 47 -43 47 C-43.04640625 46.11699219 -43.0928125 45.23398437 -43.140625 44.32421875 C-43.4286612 34.74701503 -42.67173074 26.76332637 -36.6875 19 C-32.72293578 16.04962663 -28.68788399 14.562628 -24 13 C-24.33 12.34 -24.66 11.68 -25 11 C-25.90625215 3.17057569 -25.90625215 3.17057569 -23.5 0.0625 C-15.68678619 -3.25811587 -7.41781828 -5.05760338 0 0 Z M-22 14 C-20.16715557 15.12516085 -20.16715557 15.12516085 -18 16 C-17.01 15.67 -16.02 15.34 -15 15 C-16.12534105 13.64381501 -16.12534105 13.64381501 -19.0625 13.9375 C-20.031875 13.958125 -21.00125 13.97875 -22 14 Z M-159 19 C-159 24.28 -159 29.56 -159 35 C-157.35 34.67 -155.7 34.34 -154 34 C-153.49733206 31.87562952 -152.9979439 29.75048274 -152.5 27.625 C-152.2215625 26.44164062 -151.943125 25.25828125 -151.65625 24.0390625 C-150.92964224 21.19236158 -150.92964224 21.19236158 -151 19 C-153.64 19 -156.28 19 -159 19 Z M-109 33 C-109 33.33 -109 33.66 -109 34 C-107.35 34 -105.7 34 -104 34 C-104 33.67 -104 33.34 -104 33 C-105.65 33 -107.3 33 -109 33 Z M-22 33 C-22.77916092 38.02125926 -23.13016601 41.97703996 -22 47 C-17.25980144 42.74657565 -17.25980144 42.74657565 -15.9375 36.875 C-15.958125 35.92625 -15.97875 34.9775 -16 34 C-18.97 33.505 -18.97 33.505 -22 33 Z M-75 34 C-75 34.33 -75 34.66 -75 35 C-71.37 35.33 -67.74 35.66 -64 36 C-64 35.34 -64 34.68 -64 34 C-68.01804691 33.15901344 -71.01803543 32.94595055 -75 34 Z M-109 46 C-108.01 47.485 -108.01 47.485 -107 49 C-102.65413172 49.39507893 -100.67996503 49.45331002 -97 47 C-100.96 46.67 -104.92 46.34 -109 46 Z " fill="#7A7577" transform="translate(191,9)"/>
<path d="M0 0 C0.67740234 -0.01160156 1.35480469 -0.02320313 2.05273438 -0.03515625 C7.94002655 -0.0012888 12.69594895 1.35330156 17.20703125 5.20703125 C24.89039915 14.32990601 25.92959085 24.71572476 25.0625 36.375 C23.91522079 43.19962412 22.40989603 48.94075496 18.0625 54.375 C17.485 55.15875 16.9075 55.9425 16.3125 56.75 C15.9 57.28625 15.4875 57.8225 15.0625 58.375 C15.5575 59.15875 16.0525 59.9425 16.5625 60.75 C18.0625 63.375 18.0625 63.375 18.0625 65.375 C18.805 65.024375 19.5475 64.67375 20.3125 64.3125 C23.0625 63.375 23.0625 63.375 25.25 63.375 C27.0625 64.375 27.0625 64.375 28.3125 67.4375 C28.56 68.406875 28.8075 69.37625 29.0625 70.375 C22.78659779 76.99956345 22.78659779 76.99956345 17.625 77.7109375 C10.84134226 77.81434692 10.84134226 77.81434692 7.625 76 C5.07843735 71.72177474 3.0625 66.41270702 3.0625 61.375 C1.928125 61.436875 0.79375 61.49875 -0.375 61.5625 C-6.563724 61.54055417 -11.80079988 59.98939565 -16.75 56.25 C-22.87282914 48.20285313 -24.12588499 39.96799757 -24.1875 30.125 C-24.208125 29.31675781 -24.22875 28.50851563 -24.25 27.67578125 C-24.29878611 20.05295161 -22.9278778 12.77830822 -17.625 7 C-17.07199219 6.37351562 -16.51898438 5.74703125 -15.94921875 5.1015625 C-11.00402458 0.8573376 -6.37086585 -0.10849157 0 0 Z M-3.9375 16.375 C-5.19683818 20.82884889 -5.12147568 25.08825899 -5.125 29.6875 C-5.13724609 30.51701172 -5.14949219 31.34652344 -5.16210938 32.20117188 C-5.17423399 37.32179921 -4.5934124 41.52507474 -2.9375 46.375 C-0.6275 46.375 1.6825 46.375 4.0625 46.375 C5.04577315 43.42518055 5.19137338 41.48520492 5.1953125 38.41015625 C5.19660156 37.44529297 5.19789063 36.48042969 5.19921875 35.48632812 C5.19535156 34.48021484 5.19148438 33.47410156 5.1875 32.4375 C5.19136719 31.43525391 5.19523437 30.43300781 5.19921875 29.40039062 C5.19792969 28.43423828 5.19664062 27.46808594 5.1953125 26.47265625 C5.19418457 25.59101807 5.19305664 24.70937988 5.19189453 23.80102539 C5.07025796 21.5204544 4.70173813 19.5609151 4.0625 17.375 C1.4225 17.045 -1.2175 16.715 -3.9375 16.375 Z " fill="#FC9C02" transform="translate(237.9375,11.625)"/>
<path d="M0 0 C1.12519043 -0.02578125 2.25038086 -0.0515625 3.40966797 -0.078125 C10.03858733 -0.09394345 14.19449485 0.38226889 19.5625 4.375 C22.90170366 8.0373524 23.12723274 11.77218985 22.984375 16.55078125 C22.00852356 23.08356447 19.19059756 29.48409015 15.125 34.6875 C13.16261052 37.40305683 13.16261052 37.40305683 14.1875 41.0625 C15.46130541 44.43264567 15.46130541 44.43264567 17.5625 47.375 C19.53997122 47.73797936 19.53997122 47.73797936 21.6875 47.5625 C22.96625 47.500625 24.245 47.43875 25.5625 47.375 C26.81488749 49.43775586 27.5625 50.87546895 27.5625 53.3125 C25.98224379 56.57177843 23.43255024 58.25116283 20.5625 60.375 C16.84096044 61.61551319 13.42300644 62.0460646 9.5625 61.375 C5.18746333 58.04616775 3.0926572 54.67923557 2.2265625 49.28125 C1.97061729 47.31669756 1.76293957 45.34598914 1.5625 43.375 C-1.4075 43.375 -4.3775 43.375 -7.4375 43.375 C-7.1075 44.53 -6.7775 45.685 -6.4375 46.875 C-5.35348066 51.15000587 -5.28048623 54.97861453 -5.4375 59.375 C-8.44689753 61.11330497 -10.59692665 61.626248 -14.0625 61.5625 C-14.83851562 61.55605469 -15.61453125 61.54960938 -16.4140625 61.54296875 C-18.4375 61.375 -18.4375 61.375 -20.4375 60.375 C-21.37262434 57.56962697 -21.55932907 55.89334636 -21.55102539 52.99536133 C-21.55094986 52.11467484 -21.55087433 51.23398834 -21.55079651 50.32661438 C-21.54563522 49.37965195 -21.54047394 48.43268951 -21.53515625 47.45703125 C-21.5337413 46.48465012 -21.53232635 45.51226898 -21.53086853 44.51042175 C-21.52526817 41.40274996 -21.51271562 38.29515004 -21.5 35.1875 C-21.49498505 33.08138125 -21.49042213 30.97526137 -21.48632812 28.86914062 C-21.47529862 23.70439936 -21.45803375 18.53971187 -21.4375 13.375 C-22.241875 13.395625 -23.04625 13.41625 -23.875 13.4375 C-26.4375 13.375 -26.4375 13.375 -27.4375 12.375 C-27.50955511 10.68891034 -27.52136068 8.99999341 -27.5 7.3125 C-27.49097656 6.39339844 -27.48195313 5.47429688 -27.47265625 4.52734375 C-27.46105469 3.81707031 -27.44945312 3.10679688 -27.4375 2.375 C-18.31331291 0.51698372 -9.28738186 0.10378412 0 0 Z M-4.4375 16.375 C-4.4375 21.655 -4.4375 26.935 -4.4375 32.375 C-2.7875 32.045 -1.1375 31.715 0.5625 31.375 C1.06516794 29.25062952 1.5645561 27.12548274 2.0625 25 C2.3409375 23.81664062 2.619375 22.63328125 2.90625 21.4140625 C3.63285776 18.56736158 3.63285776 18.56736158 3.5625 16.375 C0.9225 16.375 -1.7175 16.375 -4.4375 16.375 Z " fill="#973F64" transform="translate(36.4375,11.625)"/>
<path d="M0 0 C3.34839496 5.47919175 2.56661481 11.78526293 2.5625 18 C2.56241943 19.11640869 2.56233887 20.23281738 2.56225586 21.38305664 C2.41301377 43.17397246 2.41301377 43.17397246 -0.625 49.25 C1.025 48.59 2.675 47.93 4.375 47.25 C7.35274869 51.53795812 7.35274869 51.53795812 7.4375 54.25 C5.73977922 57.44570971 3.48717477 59.51027497 0.375 61.25 C-2.64761438 62.14597087 -5.49579694 62.78047442 -8.625 62.25 C-10.4140625 60.57421875 -10.4140625 60.57421875 -11.625 58.25 C-11.69921875 55.671875 -11.69921875 55.671875 -11.3125 53 C-11.19261719 52.10796875 -11.07273438 51.2159375 -10.94921875 50.296875 C-10.84222656 49.62140625 -10.73523438 48.9459375 -10.625 48.25 C-11.285 48.25 -11.945 48.25 -12.625 48.25 C-12.66625 49.095625 -12.7075 49.94125 -12.75 50.8125 C-13.90417414 55.34675554 -16.2924029 58.04115982 -19.625 61.25 C-22.84012679 62.8575634 -26.13774279 62.71362379 -29.625 62.25 C-34.52585718 59.57680517 -36.77832158 55.36510754 -38.625 50.25 C-39.17047902 46.75133896 -39.18616596 43.3473827 -39.125 39.8125 C-39.14046875 38.92240234 -39.1559375 38.03230469 -39.171875 37.11523438 C-39.12840593 29.67659044 -37.3893614 22.61661433 -32 17.1875 C-27.41559722 14.55571322 -23.79459836 14.46845442 -18.625 15.25 C-16.08659287 16.04353402 -13.99662159 17.01263221 -11.625 18.25 C-11.625 15.61 -11.625 12.97 -11.625 10.25 C-14.595 10.25 -17.565 10.25 -20.625 10.25 C-22.14650158 7.20699684 -21.86399393 4.595915 -21.625 1.25 C-15.89185517 -2.57209655 -5.91681931 -3.94454621 0 0 Z M-20.625 31.25 C-21.40416092 36.27125926 -21.75516601 40.22703996 -20.625 45.25 C-15.88480144 40.99657565 -15.88480144 40.99657565 -14.5625 35.125 C-14.583125 34.17625 -14.60375 33.2275 -14.625 32.25 C-17.595 31.755 -17.595 31.755 -20.625 31.25 Z " fill="#974064" transform="translate(189.625,10.75)"/>
<path d="M0 0 C2.93423195 1.79646854 4.47205355 2.9441071 6 6 C6.2637638 12.69300631 5.57452792 18.9652858 4.5 25.5625 C4.28537109 26.93245117 4.28537109 26.93245117 4.06640625 28.33007812 C3.71703202 30.55442736 3.36148178 32.7775921 3 35 C11.02918457 28.85535131 12.66717409 22.69806223 14 13 C13.360625 12.855625 12.72125 12.71125 12.0625 12.5625 C10 12 10 12 9 11 C8.5625 7.6875 8.5625 7.6875 9 4 C12.3065143 0.6934857 15.06958111 -0.24699649 19.625 -0.375 C22.92278214 -0.31714417 25.17509469 0.26959263 28 2 C32.30267847 9.09941948 29.79670257 17.5557928 28 25.0625 C27.34925677 27.71285979 26.67975439 30.35684788 26 33 C27.65 33 29.3 33 31 33 C32.25238749 35.06275586 33 36.50046895 33 38.9375 C31.40975612 42.21737801 29.12516563 44.253013 26 46 C22.97738562 46.89597087 20.12920306 47.53047442 17 47 C15.2109375 45.32421875 15.2109375 45.32421875 14 43 C13.92578125 40.421875 13.92578125 40.421875 14.3125 37.75 C14.43238281 36.85796875 14.55226563 35.9659375 14.67578125 35.046875 C14.78277344 34.37140625 14.88976562 33.6959375 15 33 C14.34 33 13.68 33 13 33 C12.95875 33.845625 12.9175 34.69125 12.875 35.5625 C11.72082586 40.09675554 9.3325971 42.79115982 6 46 C2.7789689 47.61051555 -0.51689626 47.60168779 -4 47 C-7.31695368 44.4041232 -9.40906556 41.87402008 -11 38 C-11.24291992 35.57397461 -11.24291992 35.57397461 -11.23046875 32.90234375 C-11.22853516 31.93619141 -11.22660156 30.97003906 -11.22460938 29.97460938 C-11.21236328 28.97236328 -11.20011719 27.97011719 -11.1875 26.9375 C-11.18685547 25.93138672 -11.18621094 24.92527344 -11.18554688 23.88867188 C-11.14065689 16.42197066 -11.14065689 16.42197066 -10 13 C-11.65 12.67 -13.3 12.34 -15 12 C-15.6 4.8 -15.6 4.8 -13.125 1.5 C-8.70510792 -0.6215482 -4.81840863 -0.80702411 0 0 Z " fill="#FB9C03" transform="translate(280,26)"/>
<path d="M0 0 C4.73289226 4.98199185 5.18144835 9.11738923 5.1875 15.75 C5.19974609 16.4409375 5.21199219 17.131875 5.22460938 17.84375 C5.238006 22.59508765 4.49414856 26.48802571 3 31 C5.97 30.505 5.97 30.505 9 30 C11 33 11 33 11 35.375 C9.38664908 39.61004617 6.04433195 41.97783402 2 44 C-1.63919918 44.39556513 -3.34648787 44.49454972 -6.3125 42.25 C-7.95208905 40.06388127 -8.61794563 38.67438062 -9 36 C-9.391875 36.763125 -9.78375 37.52625 -10.1875 38.3125 C-12.2535705 41.37598385 -13.61823604 42.53969284 -17 44 C-21.31807946 44.54957375 -23.44328894 44.2941115 -27.3125 42.25 C-30.72228274 39.39529817 -31.81320814 37.57904278 -32.3359375 33.16015625 C-32.4415081 24.78840733 -32.4415081 24.78840733 -30.25 20.875 C-25.58482082 16.98735068 -22.04218292 16.59487279 -16 17 C-13.99279077 17.28674418 -11.98821313 17.60235737 -10 18 C-10 16.02 -10 14.04 -10 12 C-19.05370885 11.79279886 -19.05370885 11.79279886 -28 13 C-31 6.88 -31 6.88 -31 3.25 C-29.62858391 0.16431379 -28.02220534 -0.5943231 -25 -2 C-17.21282316 -4.51424544 -6.98372852 -4.40278537 0 0 Z " fill="#974064" transform="translate(139,29)"/>
<path d="M0 0 C4.18634674 2.58306501 6.38394628 5.15183883 7.9375 9.8125 C9.06981928 18.26906172 9.06981928 18.26906172 6.66796875 21.54296875 C1.69257374 25.67097288 -1.97535643 25.94473909 -8.1875 25.875 C-8.94160156 25.87048828 -9.69570313 25.86597656 -10.47265625 25.86132812 C-12.33597127 25.84953499 -14.19924555 25.83159942 -16.0625 25.8125 C-14.4297149 29.55917202 -14.4297149 29.55917202 -12.0625 32.8125 C-7.05798084 32.6780811 -2.64806293 31.83554247 1.9375 29.8125 C2.9275 29.8125 3.9175 29.8125 4.9375 29.8125 C7.08729872 33.03719808 7.51399351 34.06820376 6.9375 37.8125 C5.14453125 39.54296875 5.14453125 39.54296875 2.75 41 C1.58404297 41.73283203 1.58404297 41.73283203 0.39453125 42.48046875 C-5.46942996 45.65950018 -10.42076893 46.80319961 -17.0625 45.8125 C-22.86262463 43.4131322 -27.35962036 39.58684794 -29.96484375 33.8125 C-32.88799726 26.05334597 -33.06505094 18.82857362 -30.17578125 11.0234375 C-27.79643463 6.2981386 -24.47613268 2.05981353 -19.734375 -0.390625 C-13.65011278 -2.20522952 -5.98511765 -2.28499069 0 0 Z M-13.0625 14.8125 C-9.0625 15.8125 -9.0625 15.8125 -9.0625 15.8125 Z " fill="#FB9C02" transform="translate(346.0625,27.1875)"/>
<path d="M0 0 C3.10544582 2.69683452 4.79980318 4.48032412 5.34375 8.609375 C5.73086209 16.39032803 5.73086209 16.39032803 4.03515625 20.125 C1.03762589 23.43261971 -1.91912584 24.12035698 -6.25 24.3515625 C-10.51428121 24.43224899 -14.74387096 24.25852752 -19 24 C-17.31192092 28.23084903 -17.31192092 28.23084903 -14 31 C-8.28546043 31.57145396 -3.35007378 29.77630908 2 28 C5 32.625 5 32.625 5 36 C3.20703125 37.53515625 3.20703125 37.53515625 0.8125 39.0625 C0.03519531 39.56910156 -0.74210937 40.07570312 -1.54296875 40.59765625 C-7.12297714 43.78243051 -11.64670416 44.69864422 -18 44 C-24.58520512 41.91468505 -28.69862868 38.45015622 -32.3125 32.625 C-35.39330905 26.05010264 -35.02354048 17.66104587 -33.4921875 10.6875 C-31.68686134 6.03930392 -28.58495504 1.56628255 -24.28515625 -1.0390625 C-16.36660884 -4.50443908 -7.47342176 -4.27052672 0 0 Z M-16 13 C-16 13.33 -16 13.66 -16 14 C-14.35 14 -12.7 14 -11 14 C-11 13.67 -11 13.34 -11 13 C-12.65 13 -14.3 13 -16 13 Z " fill="#974064" transform="translate(98,29)"/>
<path d="M0 0 C0.74701172 -0.01224609 1.49402344 -0.02449219 2.26367188 -0.03710938 C6.80272437 -0.04906474 10.41249142 0.46798145 14.6875 2.1875 C15.05013859 7.9897175 13.94434543 11.82749211 11.6875 17.1875 C8.19065637 16.76105565 5.19636637 16.06676526 2 14.625 C-1.16934514 12.98845344 -1.16934514 12.98845344 -4.3125 13.1875 C-4.3125 14.1775 -4.3125 15.1675 -4.3125 16.1875 C-2.88357422 16.85845703 -2.88357422 16.85845703 -1.42578125 17.54296875 C-0.15859015 18.1530978 1.10832228 18.76380585 2.375 19.375 C3.00083984 19.66697266 3.62667969 19.95894531 4.27148438 20.25976562 C8.48488752 22.31131794 11.71232906 24.45735147 14.6875 28.1875 C15.81937444 33.0805721 15.42903382 37.70443236 13.1875 42.1875 C7.71142907 46.56835674 2.09594334 47.70536622 -4.84375 47.48046875 C-8.76593898 47.01501911 -11.74733768 45.90641755 -15.3125 44.1875 C-17.87937367 40.3371895 -17.14538724 38.60180237 -16.3125 34.1875 C-12.27941237 32.57426495 -9.33540786 33.98062764 -5.3125 35.1875 C-2.6485293 35.6167212 0.00225987 35.90484314 2.6875 36.1875 C0.05598651 33.0894061 -3.0730278 31.70751614 -6.6875 29.9375 C-12.30777935 26.94252394 -15.60761621 24.9979911 -18.3125 19.1875 C-19.05543502 14.83495141 -18.86046215 11.42041484 -17.0625 7.375 C-11.84778755 0.85660943 -8.20475557 0.00697091 0 0 Z " fill="#FB9C02" transform="translate(375.3125,25.8125)"/>
<path d="M0 0 C0.78503906 0.00644531 1.57007813 0.01289063 2.37890625 0.01953125 C4.4375 0.1875 4.4375 0.1875 6.4375 1.1875 C6.4375 4.1575 6.4375 7.1275 6.4375 10.1875 C7.571875 10.166875 8.70625 10.14625 9.875 10.125 C13.4375 10.1875 13.4375 10.1875 14.4375 11.1875 C14.67711213 15.42064767 14.76238647 18.55486489 12.4375 22.1875 C10.1275 22.1875 7.8175 22.1875 5.4375 22.1875 C5.34662109 23.34765625 5.34662109 23.34765625 5.25390625 24.53125 C4.77857401 30.43999543 4.22835443 36.31258141 3.4375 42.1875 C6.4075 41.5275 9.3775 40.8675 12.4375 40.1875 C14 41.875 14 41.875 15.4375 44.1875 C15.3046875 46.62890625 15.3046875 46.62890625 14.4375 49.1875 C12.44140625 50.953125 12.44140625 50.953125 10 52.4375 C9.19691406 52.93765625 8.39382813 53.4378125 7.56640625 53.953125 C3.49860232 56.3117049 0.10676498 56.68777839 -4.5625 56.1875 C-7.69151481 54.70533509 -8.37152685 53.66762926 -9.65185547 50.44873047 C-10.56984737 47.16118735 -10.79287554 44.53392735 -10.7578125 41.1328125 C-10.75136719 40.02421875 -10.74492187 38.915625 -10.73828125 37.7734375 C-10.72152344 36.63132813 -10.70476562 35.48921875 -10.6875 34.3125 C-10.67847656 33.1471875 -10.66945313 31.981875 -10.66015625 30.78125 C-10.63667432 27.91645423 -10.60383141 25.05208465 -10.5625 22.1875 C-11.8825 21.8575 -13.2025 21.5275 -14.5625 21.1875 C-14.66015625 15.03515625 -14.66015625 15.03515625 -14.5625 13.1875 C-13.5625 12.1875 -13.5625 12.1875 -11 12.125 C-10.195625 12.145625 -9.39125 12.16625 -8.5625 12.1875 C-8.52511719 11.48882812 -8.48773438 10.79015625 -8.44921875 10.0703125 C-8.38347656 9.16023438 -8.31773437 8.25015625 -8.25 7.3125 C-8.19199219 6.40757813 -8.13398438 5.50265625 -8.07421875 4.5703125 C-7.1135151 0.09680694 -3.96748755 -0.07189846 0 0 Z " fill="#FA9B03" transform="translate(406.5625,16.8125)"/>
<path d="M0 0 C2.05859375 -0.3984375 2.05859375 -0.3984375 4.4375 -0.375 C5.21996094 -0.38273437 6.00242188 -0.39046875 6.80859375 -0.3984375 C9 0 9 0 10.72265625 1.1484375 C14.0371733 5.9529668 13.18312211 12.87003967 13.1875 18.5 C13.19974609 19.32886719 13.21199219 20.15773438 13.22460938 21.01171875 C13.2359073 25.74931608 12.8290815 29.54658418 11 34 C7.37 34 3.74 34 0 34 C-1.78783949 29.53040128 -2.25569983 27.52291225 -2.265625 22.9296875 C-2.26820313 21.78628906 -2.27078125 20.64289062 -2.2734375 19.46484375 C-2.26570312 18.28019531 -2.25796875 17.09554687 -2.25 15.875 C-2.25773438 14.68261719 -2.26546875 13.49023438 -2.2734375 12.26171875 C-2.27085937 11.12089844 -2.26828125 9.98007812 -2.265625 8.8046875 C-2.26336914 7.76296387 -2.26111328 6.72124023 -2.25878906 5.64794922 C-2 3 -2 3 0 0 Z M1 2 C-0.25933818 6.45384889 -0.18397568 10.71325899 -0.1875 15.3125 C-0.19974609 16.14201172 -0.21199219 16.97152344 -0.22460938 17.82617188 C-0.23673399 22.94679921 0.3440876 27.15007474 2 32 C4.31 32 6.62 32 9 32 C9.98327315 29.05018055 10.12887338 27.11020492 10.1328125 24.03515625 C10.13410156 23.07029297 10.13539063 22.10542969 10.13671875 21.11132812 C10.13285156 20.10521484 10.12898437 19.09910156 10.125 18.0625 C10.12886719 17.06025391 10.13273438 16.05800781 10.13671875 15.02539062 C10.13542969 14.05923828 10.13414062 13.09308594 10.1328125 12.09765625 C10.13168457 11.21601807 10.13055664 10.33437988 10.12939453 9.42602539 C10.00775796 7.1454544 9.63923813 5.1859151 9 3 C6.36 2.67 3.72 2.34 1 2 Z " fill="#827B6F" transform="translate(233,26)"/>
<path d="M0 0 C9 0 9 0 12 1 C11.22095672 14.6332574 11.22095672 14.6332574 9 21 C5.7 21 2.4 21 -1 21 C-0.67 14.07 -0.34 7.14 0 0 Z M2 3 C2 8.28 2 13.56 2 19 C3.65 18.67 5.3 18.34 7 18 C7.50266794 15.87562952 8.0020561 13.75048274 8.5 11.625 C8.7784375 10.44164062 9.056875 9.25828125 9.34375 8.0390625 C10.07035776 5.19236158 10.07035776 5.19236158 10 3 C7.36 3 4.72 3 2 3 Z " fill="#7A7577" transform="translate(30,25)"/>
<path d="M0 0 C7.75 -0.125 7.75 -0.125 10 1 C10.66386028 7.97053295 9.66947298 11.46273783 5.60546875 17.15234375 C4 19 4 19 1 21 C-1.01124232 16.82647345 -1.24089715 13.41921805 -1.1875 8.8125 C-1.18105469 7.58144531 -1.17460937 6.35039063 -1.16796875 5.08203125 C-1 2 -1 2 0 0 Z M2 2 C1.22083908 7.02125926 0.86983399 10.97703996 2 16 C6.74019856 11.74657565 6.74019856 11.74657565 8.0625 5.875 C8.041875 4.92625 8.02125 3.9775 8 3 C5.03 2.505 5.03 2.505 2 2 Z " fill="#7A7477" transform="translate(167,40)"/>
<path d="M0 0 C3.0625 0.125 3.0625 0.125 5.0625 1.125 C5.0625 2.775 5.0625 4.425 5.0625 6.125 C1.7625 6.125 -1.5375 6.125 -4.9375 6.125 C-3.86768142 0.16458219 -3.86768142 0.16458219 0 0 Z M-1.9375 3.125 C2.0625 4.125 2.0625 4.125 2.0625 4.125 Z " fill="#837B6E" transform="translate(334.9375,38.875)"/>
<path d="M0 0 C3.0625 0.125 3.0625 0.125 5.0625 1.125 C5.0625 2.775 5.0625 4.425 5.0625 6.125 C1.7625 6.455 -1.5375 6.785 -4.9375 7.125 C-3.90105353 0.16600228 -3.90105353 0.16600228 0 0 Z M-1.9375 3.125 C-1.9375 3.455 -1.9375 3.785 -1.9375 4.125 C-0.2875 4.125 1.3625 4.125 3.0625 4.125 C3.0625 3.795 3.0625 3.465 3.0625 3.125 C1.4125 3.125 -0.2375 3.125 -1.9375 3.125 Z " fill="#7B7376" transform="translate(83.9375,38.875)"/>
<path d="M0 0 C2.31 0 4.62 0 7 0 C6.6875 2.375 6.6875 2.375 6 5 C3 7 3 7 0.8125 6.625 C0.214375 6.41875 -0.38375 6.2125 -1 6 C-0.67 4.02 -0.34 2.04 0 0 Z " fill="#7B7276" transform="translate(122,54)"/>
<path d="M0 0 C1 3 1 3 -0.0625 5.875 C-2.33679945 9.54322493 -4.57786712 11.41438849 -8 14 C-8.66 13.67 -9.32 13.34 -10 13 C-9.59007812 12.55269531 -9.18015625 12.10539062 -8.7578125 11.64453125 C-5.69631465 8.20950137 -3.54916721 5.3893071 -2 1 C-1.34 0.67 -0.68 0.34 0 0 Z " fill="#857C6D" transform="translate(262,56)"/>
<path d="M0 0 C3.3 0 6.6 0 10 0 C10 0.99 10 1.98 10 3 C6.37 3 2.74 3 -1 3 C-0.67 2.01 -0.34 1.02 0 0 Z " fill="#877C6A" transform="translate(234,9)"/>
<path d="M0 0 C-1 2 -1 2 -3.06640625 2.8515625 C-4.30197266 3.23441406 -4.30197266 3.23441406 -5.5625 3.625 C-6.38878906 3.88539062 -7.21507812 4.14578125 -8.06640625 4.4140625 C-8.70449219 4.60742188 -9.34257812 4.80078125 -10 5 C-8.63978541 1.78910882 -8.35808746 1.15666326 -5 -0.3125 C-2 -1 -2 -1 0 0 Z " fill="#7A7876" transform="translate(234,10)"/>
</svg>
